<svg version="1.1" id="Logos" xmlns="http://www.w3.org/2000/svg" xmlns:xlink="http://www.w3.org/1999/xlink" x="0px" y="0px" viewBox="0 0 178 52" style="enable-background:new 0 0 178 52;" xml:space="preserve">
<g>
	<circle class="td-coral-med-low-contrast" fill="#FF7C66" cx="173" cy="9.4" r="4"></circle>
	<g class="boomi_logo" fill="#072B55">
		<path d="M56,18.7c8.9-0.2,16.3,6.8,16.5,15.7c0.2,8.9-6.8,16.3-15.7,16.5c-0.3,0-0.6,0-0.8,0
			c-8.9,0.2-16.3-6.8-16.5-15.7c-0.2-8.9,6.8-16.3,15.7-16.5C55.4,18.7,55.7,18.7,56,18.7z M56,45c5.4,0.1,9.9-4.2,10.1-9.6
			c0-0.2,0-0.3,0-0.5c0-5.6-4.5-10.1-10.1-10.1c-5.6,0-10.1,4.5-10.1,10.1c0,0,0,0,0,0c-0.2,5.4,4.1,10,9.6,10.1
			C55.6,45,55.8,45,56,45z"></path>
		<path d="M92.7,18.7c8.9,0.2,16,7.5,15.8,16.4c-0.2,8.9-7.5,16-16.4,15.8c-8.8-0.2-15.8-7.3-15.8-16.1
			c-0.1-8.8,7-16.1,15.8-16.1C92.3,18.7,92.5,18.7,92.7,18.7z M92.7,45c5.4,0.1,9.9-4.2,10.1-9.6c0-0.2,0-0.3,0-0.5
			c0-5.6-4.5-10.1-10.1-10.1c-5.6,0-10.1,4.5-10.1,10.1c0,0,0,0,0,0c-0.2,5.4,4.1,10,9.6,10.1C92.3,45,92.5,45,92.7,45z"></path>
		<path class="st2" d="M169.8,49.6V19.4c0-0.4,0.3-0.7,0.7-0.7l0,0h5c0.4,0,0.7,0.3,0.7,0.7c0,0,0,0,0,0v30.2c0,0.4-0.3,0.7-0.7,0.7
			h-5C170.1,50.3,169.8,50,169.8,49.6z"></path>
		<path d="M151.1,18.7c-4.4-0.1-8.6,2.1-11.1,5.8c-2-3.6-5.7-5.8-11-5.8s-8.4,3-9.4,4.6v-4.9c0-0.4-0.3-0.7-0.7-0.7
			c-0.1,0-0.3,0-0.4,0.1l-5.2,3c-0.1,0.1-0.2,0.2-0.2,0.3v28.6c0,0.4,0.3,0.7,0.7,0.7h5c0.4,0,0.7-0.3,0.7-0.7V32.9
			c0-5.1,3.8-8.1,8.4-8.1s7.3,3,7.3,8.1v16.7c0,0.4,0.3,0.7,0.7,0.7h5c0.4,0,0.7-0.3,0.7-0.7V32.5c0.2-4.9,3.9-7.7,8.4-7.7
			c4.5,0,7.3,3,7.3,8.1v16.8c0,0.4,0.3,0.7,0.7,0.7h5c0.4,0,0.7-0.3,0.7-0.7V31.5C163.9,24,159.4,18.7,151.1,18.7z"></path>
		<path d="M18.9,18.7c-4.2-0.1-8.3,1.5-11.4,4.4V1.7C7.4,1.3,7.1,1,6.7,1C6.6,1,6.5,1,6.4,1.1l-5.2,3
			C1.1,4.1,1,4.3,1,4.4v45.2c0,0.4,0.3,0.7,0.7,0.7c0,0,0,0,0,0h5c0.4,0,0.7-0.3,0.7-0.7v0v-3c3.1,2.9,7.2,4.4,11.4,4.4
			c8.9,0.2,16.3-6.8,16.5-15.7c0.2-8.9-6.8-16.3-15.7-16.5C19.4,18.7,19.1,18.7,18.9,18.7L18.9,18.7z M18.9,45
			c-5.4,0.1-9.9-4.2-10.1-9.6c0-0.2,0-0.3,0-0.5c0-5.6,4.5-10.1,10.1-10.1s10.1,4.5,10.1,10.1c0.2,5.4-4.1,10-9.6,10.1
			C19.2,45,19,45,18.9,45z"></path>
	</g>
</g>
</svg>